<svg width="29" height="28" viewBox="0 0 29 28" fill="none" xmlns="http://www.w3.org/2000/svg">
<g id="facebook-app-round-white-icon 1" clip-path="url(#clip0_967_1780)">
<path id="Vector" d="M28.1029 14.0515C28.1029 6.29105 21.8119 0 14.0515 0C6.29105 0 0 6.29105 0 14.0515C0 20.6413 4.53664 26.1707 10.657 27.6891V18.3453H7.75942V14.0515H10.657V12.2012C10.657 7.41857 12.8214 5.20178 17.5168 5.20178C18.407 5.20178 19.943 5.37633 20.5714 5.55087V9.44335C20.2398 9.40849 19.6637 9.39098 18.9481 9.39098C16.644 9.39098 15.7538 10.2638 15.7538 12.5329V14.0515H20.3435L19.555 18.3453H15.7538V28C22.7113 27.1597 28.1029 21.2355 28.1029 14.0515Z" fill="white"/>
</g>
<defs>
<clipPath id="clip0_967_1780">
<rect width="28.1029" height="28" fill="white"/>
</clipPath>
</defs>
</svg>
