<svg width="29" height="28" viewBox="0 0 29 28" fill="none" xmlns="http://www.w3.org/2000/svg">
<g id="instagram-white-icon 1" clip-path="url(#clip0_967_1784)">
<path id="Vector" d="M10.2002 14.0086C10.1956 11.4317 12.2813 9.33828 14.8577 9.33374C17.4347 9.32871 19.5284 11.4135 19.5335 13.9909C19.5385 16.5683 17.4528 18.6612 14.8754 18.6663C12.299 18.6712 10.2052 16.586 10.2002 14.0086ZM7.67865 14.0136C7.68636 17.984 10.911 21.1955 14.8804 21.1878C18.8503 21.1801 22.0636 17.9563 22.0559 13.9859C22.0482 10.0168 18.8231 6.80351 14.8528 6.81122C10.8833 6.81893 7.67094 10.0441 7.67865 14.0136ZM20.6453 6.5164C20.6471 7.44352 21.4009 8.19427 22.3281 8.19246C23.2557 8.19066 24.0064 7.43718 24.0051 6.51006C24.0033 5.58289 23.2494 4.8317 22.3218 4.8335C21.3942 4.83531 20.6435 5.58918 20.6453 6.5164ZM9.23221 25.4055C7.86732 25.346 7.12614 25.1192 6.6322 24.9292C5.97809 24.676 5.51133 24.3726 5.02007 23.885C4.52974 23.3955 4.22535 22.9301 3.96996 22.2773C3.77812 21.7834 3.54723 21.0431 3.48324 19.6782C3.41384 18.2026 3.39798 17.7599 3.3912 14.0218C3.38393 10.2845 3.39755 9.84179 3.46197 8.36484C3.52043 7.00082 3.74864 6.25872 3.93824 5.76521C4.19134 5.11022 4.49392 4.64434 4.98244 4.15308C5.47184 3.66188 5.93723 3.35836 6.59042 3.10297C7.08398 2.9102 7.82423 2.68111 9.18868 2.61625C10.6651 2.54642 11.1074 2.53143 14.8446 2.52416C18.5827 2.51694 19.0254 2.53007 20.5024 2.59498C21.8663 2.65437 22.6084 2.88029 23.1015 3.07125C23.756 3.32435 24.2228 3.626 24.7136 4.11546C25.2044 4.60491 25.5087 5.06937 25.7641 5.72393C25.9569 6.21611 26.186 6.95729 26.2504 8.32125C26.3207 9.79776 26.3366 10.2405 26.3434 13.9777C26.3506 17.7159 26.337 18.1587 26.2722 19.6347C26.2127 20.9996 25.9864 21.7412 25.7959 22.2357C25.5428 22.8893 25.2402 23.3561 24.7512 23.8474C24.2623 24.3368 23.7969 24.642 23.1432 24.8974C22.6506 25.0898 21.9094 25.3193 20.5459 25.3841C19.0695 25.4535 18.6271 25.4694 14.8886 25.4762C11.1514 25.4835 10.7092 25.4694 9.23221 25.4055ZM9.06891 0.0969653C7.57928 0.167239 6.56187 0.40584 5.67277 0.7542C4.75243 1.113 3.97226 1.59387 3.19619 2.37317C2.41913 3.1529 1.94193 3.93444 1.58586 4.85571C1.24116 5.74706 1.00754 6.76496 0.941749 8.25552C0.876452 9.74882 0.861468 10.2251 0.868741 14.0267C0.876015 17.828 0.892749 18.3052 0.963952 19.7988C1.03516 21.288 1.27288 22.3051 1.62124 23.1946C1.98048 24.115 2.46086 24.8947 3.24059 25.6712C4.01989 26.4479 4.80192 26.9246 5.72362 27.2811C6.61405 27.6254 7.63233 27.8599 9.12245 27.9252C10.6157 27.991 11.0924 28.0055 14.8931 27.9983C18.6957 27.991 19.1724 27.9742 20.6657 27.9035C22.1553 27.8322 23.1718 27.5937 24.0618 27.2462C24.9821 26.886 25.7623 26.4066 26.5385 25.6268C27.3145 24.8475 27.7917 24.0655 28.1478 23.1438C28.4925 22.2533 28.727 21.235 28.7919 19.7458C28.8572 18.2516 28.8727 17.7744 28.8654 13.9732C28.8581 10.1716 28.8409 9.69528 28.7701 8.20242C28.6994 6.71191 28.4608 5.69532 28.1129 4.80534C27.7532 3.885 27.2733 3.10571 26.494 2.32871C25.7147 1.55258 24.9327 1.07445 24.011 0.719309C23.1201 0.374504 22.1022 0.139567 20.6121 0.075145C19.1188 0.00897311 18.6421 -0.00557376 14.84 0.00169968C11.0389 0.00897311 10.5622 0.02527 9.06891 0.0969653Z" fill="white"/>
</g>
<defs>
<clipPath id="clip0_967_1784">
<rect width="28" height="28" fill="white" transform="translate(0.867065)"/>
</clipPath>
</defs>
</svg>
