<svg width="29" height="28" viewBox="0 0 29 28" fill="none" xmlns="http://www.w3.org/2000/svg">
<g id="linkedin-app-white-icon 1" clip-path="url(#clip0_967_1788)">
<path id="Vector" fill-rule="evenodd" clip-rule="evenodd" d="M26.7425 0H2.88089C1.73945 0 0.770386 0.902562 0.770386 2.01474V25.9842C0.770386 27.0974 1.40635 28 2.54729 28H26.4089C27.5518 28 28.7704 27.0974 28.7704 25.9842V2.01474C28.7704 0.902562 27.8849 0 26.7425 0ZM11.4368 10.6664H15.2063V12.5879H15.2476C15.8221 11.5519 17.5194 10.5001 19.6183 10.5001C23.6463 10.5001 24.7706 12.6388 24.7706 16.5998V24.0002H20.7703V17.3295C20.7703 15.5562 20.0623 14 18.4063 14C16.3956 14 15.4371 15.3611 15.4371 17.5961V24.0002H11.4368V10.6664ZM4.77017 24.0002H8.77046V10.6664H4.77017V24.0002ZM9.27035 5.99993C9.27035 7.38123 8.15161 8.49997 6.77032 8.49997C5.38902 8.49997 4.27028 7.38123 4.27028 5.99993C4.27028 4.61863 5.38902 3.49989 6.77032 3.49989C8.15161 3.49989 9.27035 4.61863 9.27035 5.99993Z" fill="white"/>
</g>
<defs>
<clipPath id="clip0_967_1788">
<rect width="28" height="28" fill="white" transform="translate(0.770386)"/>
</clipPath>
</defs>
</svg>
