<svg width="38" height="26" viewBox="0 0 38 26" fill="none" xmlns="http://www.w3.org/2000/svg">
<g id="youtube-app-white-icon 1" clip-path="url(#clip0_967_1786)">
<path id="Vector" fill-rule="evenodd" clip-rule="evenodd" d="M33.7366 0.776196C35.3246 1.20332 36.5748 2.46179 36.9992 4.06002C37.7704 6.95657 37.7704 13 37.7704 13C37.7704 13 37.7704 19.0434 36.9992 21.9402C36.5748 23.5381 35.3246 24.7967 33.7366 25.2239C30.8588 26 19.3188 26 19.3188 26C19.3188 26 7.77881 26 4.90092 25.2239C3.31314 24.7967 2.0626 23.5381 1.63829 21.9402C0.867065 19.0434 0.867065 13 0.867065 13C0.867065 13 0.867065 6.95657 1.63829 4.06002C2.0626 2.46179 3.31314 1.20332 4.90092 0.776196C7.77881 0 19.3188 0 19.3188 0C19.3188 0 30.8588 0 33.7366 0.776196ZM15.5446 18.4869L25.1898 13.0003L15.5446 7.513V18.4869Z" fill="white"/>
</g>
<defs>
<clipPath id="clip0_967_1786">
<rect width="36.9034" height="26" fill="white" transform="translate(0.867065)"/>
</clipPath>
</defs>
</svg>
